<svg width="112" height="112" viewBox="0 0 112 112" fill="none" xmlns="http://www.w3.org/2000/svg"><rect x="1.71359" y="1.71359" width="108.573" height="108.573" rx="54.2864" fill="#1D334F"/><rect x="1.71359" y="1.71359" width="108.573" height="108.573" rx="54.2864" stroke="white" stroke-width="2.57282"/><mask id="mask0_2067_2591" style="mask-type:alpha" maskUnits="userSpaceOnUse" x="25" y="25" width="62" height="62"><rect x="25" y="25" width="62" height="62" fill="#D9D9D9"/></mask><g mask="url(#mask0_2067_2591)"><path d="M48.8964 81.8332L47.8631 73.5665C47.3034 73.3512 46.7759 73.0929 46.2808 72.7915C45.7857 72.4901 45.3013 72.1672 44.8277 71.8228L37.1423 75.0519L30.0381 62.7811L36.6902 57.7436C36.6471 57.4422 36.6256 57.1516 36.6256 56.8717V55.128C36.6256 54.8481 36.6471 54.5575 36.6902 54.2561L30.0381 49.2186L37.1423 36.9478L44.8277 40.1769C45.3013 39.8325 45.7964 39.5096 46.3131 39.2082C46.8298 38.9068 47.3464 38.6484 47.8631 38.4332L48.8964 30.1665H63.1048L64.1381 38.4332C64.6978 38.6484 65.2252 38.9068 65.7204 39.2082C66.2155 39.5096 66.6999 39.8325 67.1735 40.1769L74.8589 36.9478L81.9631 49.2186L75.311 54.2561C75.3541 54.5575 75.3756 54.8481 75.3756 55.128V56.8717C75.3756 57.1516 75.3325 57.4422 75.2464 57.7436L81.8985 62.7811L74.7943 75.0519L67.1735 71.8228C66.6999 72.1672 66.2048 72.4901 65.6881 72.7915C65.1714 73.0929 64.6548 73.3512 64.1381 73.5665L63.1048 81.8332H48.8964ZM56.1298 65.0415C58.627 65.0415 60.7582 64.1589 62.5235 62.3936C64.2888 60.6283 65.1714 58.4971 65.1714 55.9998C65.1714 53.5026 64.2888 51.3714 62.5235 49.6061C60.7582 47.8408 58.627 46.9582 56.1298 46.9582C53.5895 46.9582 51.4475 47.8408 49.7037 49.6061C47.96 51.3714 47.0881 53.5026 47.0881 55.9998C47.0881 58.4971 47.96 60.6283 49.7037 62.3936C51.4475 64.1589 53.5895 65.0415 56.1298 65.0415Z" fill="white"/></g></svg>