<svg width="1677" height="512" viewBox="0 0 1677 512" fill="none" xmlns="http://www.w3.org/2000/svg"><mask id="mask0_2063_2159" style="mask-type:luminance" maskUnits="userSpaceOnUse" x="766" y="0" width="911" height="512"><path d="M766.05 -6.10352e-05V511.9L1676.1 511.9V-6.10352e-05L766.05 -6.10352e-05Z" fill="white"/></mask><g mask="url(#mask0_2063_2159)"><g opacity="0.2"><path d="M808.17 63.9897L815.54 59.5697C815.75 59.4397 815.82 59.1697 815.69 58.9597C815.56 58.7497 815.29 58.6897 815.08 58.8097L807.71 63.2297C807.5 63.3597 807.43 63.6297 807.56 63.8397C807.64 63.9797 807.79 64.0497 807.94 64.0497C808.02 64.0497 808.1 64.0297 808.17 63.9897Z" fill="#1D1D1B"/><path d="M793.43 72.84L800.8 68.41C801.01 68.28 801.08 68.01 800.95 67.8C800.83 67.59 800.55 67.53 800.34 67.65L792.97 72.08C792.76 72.21 792.69 72.48 792.82 72.69C792.9 72.83 793.05 72.9 793.2 72.9C793.28 72.9 793.36 72.88 793.43 72.84Z" fill="#1D1D1B"/><path d="M822.92 55.1396L830.29 50.7196C830.5 50.5896 830.57 50.3196 830.44 50.1096C830.31 49.8996 830.04 49.8396 829.83 49.9596L822.46 54.3796C822.25 54.5096 822.18 54.7796 822.31 54.9896C822.39 55.1296 822.54 55.1996 822.69 55.1996C822.77 55.1996 822.85 55.1796 822.92 55.1396Z" fill="#1D1D1B"/><path d="M847.069 216.33C847.239 216.57 847.359 216.84 847.499 217.1L984.389 134.97C984.219 134.73 984.069 134.48 983.939 134.21L847.079 216.33H847.069Z" fill="#1D1D1B"/><path d="M841.459 104.06C841.459 103.82 841.259 103.62 841.019 103.62C840.779 103.62 840.579 103.82 840.579 104.06V112.08C840.579 112.32 840.779 112.52 841.019 112.52C841.259 112.52 841.459 112.32 841.459 112.08V104.06Z" fill="#1D1D1B"/><path d="M841.459 136.13C841.459 135.89 841.259 135.69 841.019 135.69C840.779 135.69 840.579 135.89 840.579 136.13V144.15C840.579 144.39 840.779 144.59 841.019 144.59C841.259 144.59 841.459 144.39 841.459 144.15V136.13Z" fill="#1D1D1B"/><path d="M841.459 120.1C841.459 119.86 841.259 119.66 841.019 119.66C840.779 119.66 840.579 119.86 840.579 120.1V128.12C840.579 128.37 840.779 128.56 841.019 128.56C841.259 128.56 841.459 128.36 841.459 128.12V120.1Z" fill="#1D1D1B"/><path d="M841.459 71.9898C841.459 71.7498 841.259 71.5498 841.019 71.5498C840.779 71.5498 840.579 71.7498 840.579 71.9898V80.0098C840.579 80.2498 840.779 80.4498 841.019 80.4498C841.259 80.4498 841.459 80.2498 841.459 80.0098V71.9898Z" fill="#1D1D1B"/><path d="M841.459 184.24C841.459 184 841.259 183.8 841.019 183.8C840.779 183.8 840.579 184 840.579 184.24V192.26C840.579 192.5 840.779 192.7 841.019 192.7C841.259 192.7 841.459 192.5 841.459 192.26V184.24Z" fill="#1D1D1B"/><path d="M841.459 55.9498C841.459 55.7098 841.259 55.5098 841.019 55.5098C840.779 55.5098 840.579 55.7098 840.579 55.9498V63.9698C840.579 64.2098 840.779 64.4098 841.019 64.4098C841.259 64.4098 841.459 64.2098 841.459 63.9698V55.9498Z" fill="#1D1D1B"/><path d="M841.459 88.0201C841.459 87.7801 841.259 87.5801 841.019 87.5801C840.779 87.5801 840.579 87.7801 840.579 88.0201V96.04C840.579 96.28 840.779 96.48 841.019 96.48C841.259 96.48 841.459 96.28 841.459 96.04V88.0201Z" fill="#1D1D1B"/><path d="M841.459 152.16C841.459 151.92 841.259 151.72 841.019 151.72C840.779 151.72 840.579 151.92 840.579 152.16V160.18C840.579 160.42 840.779 160.62 841.019 160.62C841.259 160.62 841.459 160.42 841.459 160.18V152.16Z" fill="#1D1D1B"/><path d="M841.459 168.2C841.459 167.96 841.259 167.76 841.019 167.76C840.779 167.76 840.579 167.96 840.579 168.2V176.22C840.579 176.46 840.779 176.66 841.019 176.66C841.259 176.66 841.459 176.46 841.459 176.22V168.2Z" fill="#1D1D1B"/><path d="M841.019 199.83C840.779 199.83 840.579 200.03 840.579 200.27V208.29C840.579 208.53 840.779 208.73 841.019 208.73C841.259 208.73 841.459 208.53 841.459 208.29V200.27C841.459 200.03 841.259 199.83 841.019 199.83Z" fill="#1D1D1B"/><path d="M1128.88 40.2896C1129.02 40.0296 1129.14 39.7596 1129.31 39.5196L996.93 -39.9004C996.79 -39.6404 996.67 -39.3704 996.51 -39.1204L1128.88 40.2996V40.2896Z" fill="#1D1D1B"/><path d="M992.17 129.27C992.34 129.51 992.49 129.76 992.62 130.03L1129.31 48.02C1129.14 47.78 1129.02 47.51 1128.88 47.25L992.17 129.28V129.27Z" fill="#1D1D1B"/><path d="M1276.71 136.29C1276.54 136.05 1276.42 135.78 1276.28 135.52L1141.83 216.19C1142 216.43 1142.12 216.7 1142.26 216.96L1276.71 136.29Z" fill="#1D1D1B"/><path d="M1135.09 128.11C1135.09 128.36 1135.29 128.55 1135.53 128.55C1135.77 128.55 1135.97 128.35 1135.97 128.11V120.09C1135.97 119.85 1135.77 119.65 1135.53 119.65C1135.29 119.65 1135.09 119.85 1135.09 120.09V128.11Z" fill="#1D1D1B"/><path d="M1135.09 176.22C1135.09 176.46 1135.29 176.66 1135.53 176.66C1135.77 176.66 1135.97 176.46 1135.97 176.22V168.2C1135.97 167.96 1135.77 167.76 1135.53 167.76C1135.29 167.76 1135.09 167.96 1135.09 168.2V176.22Z" fill="#1D1D1B"/><path d="M1135.09 208.29C1135.09 208.53 1135.29 208.73 1135.53 208.73C1135.77 208.73 1135.97 208.53 1135.97 208.29V200.27C1135.97 200.03 1135.77 199.83 1135.53 199.83C1135.29 199.83 1135.09 200.03 1135.09 200.27V208.29Z" fill="#1D1D1B"/><path d="M1135.09 160.18C1135.09 160.42 1135.29 160.62 1135.53 160.62C1135.77 160.62 1135.97 160.42 1135.97 160.18V152.16C1135.97 151.92 1135.77 151.72 1135.53 151.72C1135.29 151.72 1135.09 151.92 1135.09 152.16V160.18Z" fill="#1D1D1B"/><path d="M1135.09 96.04C1135.09 96.28 1135.29 96.48 1135.53 96.48C1135.77 96.48 1135.97 96.28 1135.97 96.04V88.0201C1135.97 87.7801 1135.77 87.5801 1135.53 87.5801C1135.29 87.5801 1135.09 87.7801 1135.09 88.0201V96.04Z" fill="#1D1D1B"/><path d="M1135.09 112.08C1135.09 112.32 1135.29 112.52 1135.53 112.52C1135.77 112.52 1135.97 112.32 1135.97 112.08V104.06C1135.97 103.82 1135.77 103.62 1135.53 103.62C1135.29 103.62 1135.09 103.82 1135.09 104.06V112.08Z" fill="#1D1D1B"/><path d="M1135.09 144.15C1135.09 144.39 1135.29 144.59 1135.53 144.59C1135.77 144.59 1135.97 144.39 1135.97 144.15V136.13C1135.97 135.89 1135.77 135.69 1135.53 135.69C1135.29 135.69 1135.09 135.89 1135.09 136.13V144.15Z" fill="#1D1D1B"/><path d="M1135.53 64.4098C1135.77 64.4098 1135.97 64.2098 1135.97 63.9698V55.9498C1135.97 55.7098 1135.77 55.5098 1135.53 55.5098C1135.29 55.5098 1135.09 55.7098 1135.09 55.9498V63.9698C1135.09 64.2098 1135.29 64.4098 1135.53 64.4098Z" fill="#1D1D1B"/><path d="M1135.09 80.0098C1135.09 80.2498 1135.29 80.4498 1135.53 80.4498C1135.77 80.4498 1135.97 80.2498 1135.97 80.0098V71.9898C1135.97 71.7498 1135.77 71.5498 1135.53 71.5498C1135.29 71.5498 1135.09 71.7498 1135.09 71.9898V80.0098Z" fill="#1D1D1B"/><path d="M1135.09 192.25C1135.09 192.49 1135.29 192.69 1135.53 192.69C1135.77 192.69 1135.97 192.49 1135.97 192.25V184.23C1135.97 183.99 1135.77 183.79 1135.53 183.79C1135.29 183.79 1135.09 183.99 1135.09 184.23V192.25Z" fill="#1D1D1B"/><path d="M1161.46 28.7297L1168.83 24.2997C1169.04 24.1697 1169.11 23.8997 1168.98 23.6897C1168.86 23.4797 1168.59 23.4197 1168.37 23.5397L1161 27.9697C1160.79 28.0997 1160.72 28.3697 1160.85 28.5797C1160.93 28.7197 1161.08 28.7897 1161.23 28.7897C1161.31 28.7897 1161.39 28.7697 1161.46 28.7297Z" fill="#1D1D1B"/><path d="M1176.21 19.8798L1183.58 15.4598C1183.79 15.3298 1183.86 15.0598 1183.73 14.8498C1183.61 14.6398 1183.33 14.5798 1183.13 14.6998L1175.76 19.1198C1175.55 19.2498 1175.48 19.5198 1175.61 19.7298C1175.69 19.8698 1175.84 19.9398 1175.99 19.9398C1176.07 19.9398 1176.15 19.9198 1176.22 19.8798H1176.21Z" fill="#1D1D1B"/><path d="M1190.96 11.0297L1198.33 6.60969C1198.54 6.47969 1198.61 6.20971 1198.48 5.99971C1198.36 5.78971 1198.09 5.72974 1197.87 5.84974L1190.5 10.2697C1190.29 10.3997 1190.22 10.6697 1190.35 10.8797C1190.43 11.0197 1190.58 11.0897 1190.73 11.0897C1190.81 11.0897 1190.89 11.0697 1190.96 11.0297Z" fill="#1D1D1B"/><path d="M1146.71 37.58L1154.08 33.16C1154.29 33.03 1154.36 32.76 1154.23 32.55C1154.11 32.34 1153.83 32.28 1153.62 32.4L1146.25 36.82C1146.04 36.95 1145.97 37.22 1146.1 37.43C1146.18 37.57 1146.33 37.64 1146.48 37.64C1146.56 37.64 1146.64 37.62 1146.71 37.58Z" fill="#1D1D1B"/><path d="M1205.7 2.17962L1213.07 -2.24036C1213.28 -2.37036 1213.35 -2.64035 1213.22 -2.85035C1213.09 -3.06035 1212.82 -3.12037 1212.61 -3.00037L1205.24 1.41961C1205.03 1.54961 1204.96 1.81966 1205.09 2.02966C1205.17 2.16966 1205.32 2.23962 1205.47 2.23962C1205.55 2.23962 1205.63 2.21962 1205.7 2.17962Z" fill="#1D1D1B"/><path d="M1283.23 124.79V-31.1802C1283.08 -31.1802 1282.94 -31.1602 1282.79 -31.1602C1282.64 -31.1602 1282.5 -31.1802 1282.35 -31.1802V124.79C1282.5 124.79 1282.64 124.75 1282.79 124.75C1282.94 124.75 1283.08 124.79 1283.23 124.79Z" fill="#1D1D1B"/><path d="M1419.98 50.3196C1419.82 50.0696 1419.66 49.8196 1419.52 49.5596L1288.87 127.95C1289.04 128.19 1289.16 128.46 1289.3 128.72L1419.98 50.3096V50.3196Z" fill="#1D1D1B"/><path d="M1396.6 200.4C1396.47 200.61 1396.54 200.88 1396.75 201.01L1404.12 205.44C1404.19 205.48 1404.27 205.5 1404.35 205.5C1404.5 205.5 1404.64 205.43 1404.73 205.29C1404.86 205.08 1404.79 204.81 1404.58 204.68L1397.21 200.25C1397 200.13 1396.73 200.19 1396.6 200.4Z" fill="#1D1D1B"/><path d="M1308.11 147.31C1307.98 147.52 1308.05 147.79 1308.26 147.92L1315.63 152.34C1315.7 152.38 1315.78 152.4 1315.86 152.4C1316.01 152.4 1316.16 152.33 1316.24 152.19C1316.37 151.98 1316.3 151.71 1316.09 151.58L1308.72 147.16C1308.51 147.04 1308.24 147.1 1308.11 147.31Z" fill="#1D1D1B"/><path d="M1411.35 209.25C1411.22 209.46 1411.29 209.73 1411.5 209.86L1418.87 214.28C1418.94 214.32 1419.02 214.34 1419.1 214.34C1419.25 214.34 1419.39 214.26 1419.48 214.13C1419.61 213.92 1419.54 213.65 1419.33 213.52L1411.96 209.1C1411.75 208.98 1411.48 209.04 1411.35 209.25Z" fill="#1D1D1B"/><path d="M1322.86 156.16C1322.73 156.37 1322.8 156.64 1323.01 156.77L1330.38 161.2C1330.45 161.24 1330.53 161.26 1330.61 161.26C1330.76 161.26 1330.91 161.18 1330.99 161.05C1331.12 160.84 1331.05 160.57 1330.84 160.44L1323.47 156.01C1323.26 155.88 1322.99 155.95 1322.86 156.16Z" fill="#1D1D1B"/><path d="M1352.36 173.86C1352.23 174.07 1352.3 174.34 1352.51 174.47L1359.88 178.89C1359.95 178.93 1360.03 178.95 1360.11 178.95C1360.26 178.95 1360.41 178.88 1360.49 178.74C1360.62 178.53 1360.55 178.26 1360.34 178.13L1352.97 173.71C1352.76 173.59 1352.49 173.65 1352.36 173.86Z" fill="#1D1D1B"/><path d="M1367.1 182.71C1366.97 182.92 1367.04 183.19 1367.25 183.32L1374.62 187.74C1374.69 187.78 1374.77 187.8 1374.85 187.8C1375 187.8 1375.15 187.72 1375.23 187.59C1375.36 187.38 1375.29 187.11 1375.08 186.98L1367.71 182.56C1367.5 182.44 1367.23 182.5 1367.1 182.71Z" fill="#1D1D1B"/><path d="M1337.61 165.01C1337.48 165.22 1337.55 165.49 1337.76 165.62L1345.13 170.04C1345.2 170.08 1345.28 170.1 1345.36 170.1C1345.51 170.1 1345.66 170.02 1345.74 169.89C1345.87 169.68 1345.8 169.41 1345.59 169.28L1338.22 164.86C1338.01 164.74 1337.74 164.8 1337.61 165.01Z" fill="#1D1D1B"/><path d="M1381.85 191.56C1381.72 191.77 1381.79 192.04 1382 192.17L1389.37 196.59C1389.44 196.63 1389.52 196.65 1389.6 196.65C1389.75 196.65 1389.9 196.57 1389.98 196.44C1390.11 196.23 1390.04 195.96 1389.83 195.83L1382.46 191.41C1382.25 191.29 1381.98 191.35 1381.85 191.56Z" fill="#1D1D1B"/><path d="M1301.12 143.56C1301.27 143.56 1301.42 143.48 1301.5 143.35C1301.63 143.14 1301.56 142.87 1301.35 142.74L1293.98 138.32C1293.77 138.2 1293.5 138.26 1293.37 138.47C1293.24 138.68 1293.31 138.95 1293.52 139.08L1300.89 143.5C1300.96 143.54 1301.04 143.56 1301.12 143.56Z" fill="#1D1D1B"/><path d="M1430.49 168.2C1430.49 167.96 1430.29 167.76 1430.05 167.76C1429.81 167.76 1429.61 167.96 1429.61 168.2V176.22C1429.61 176.46 1429.81 176.66 1430.05 176.66C1430.29 176.66 1430.49 176.46 1430.49 176.22V168.2Z" fill="#1D1D1B"/><path d="M1430.05 199.83C1429.81 199.83 1429.61 200.03 1429.61 200.27V208.29C1429.61 208.53 1429.81 208.73 1430.05 208.73C1430.29 208.73 1430.49 208.53 1430.49 208.29V200.27C1430.49 200.03 1430.29 199.83 1430.05 199.83Z" fill="#1D1D1B"/><path d="M1430.49 184.24C1430.49 184 1430.29 183.8 1430.05 183.8C1429.81 183.8 1429.61 184 1429.61 184.24V192.26C1429.61 192.5 1429.81 192.7 1430.05 192.7C1430.29 192.7 1430.49 192.5 1430.49 192.26V184.24Z" fill="#1D1D1B"/><path d="M1429.68 55.77C1429.65 55.83 1429.6 55.88 1429.6 55.95V63.97C1429.6 64.21 1429.8 64.41 1430.04 64.41C1430.28 64.41 1430.48 64.21 1430.48 63.97V55.95C1430.48 55.88 1430.43 55.83 1430.4 55.77C1430.28 55.77 1430.16 55.79 1430.03 55.79C1429.9 55.79 1429.79 55.78 1429.66 55.77H1429.68Z" fill="#1D1D1B"/><path d="M1430.49 88.0201C1430.49 87.7801 1430.29 87.5801 1430.05 87.5801C1429.81 87.5801 1429.61 87.7801 1429.61 88.0201V96.04C1429.61 96.28 1429.81 96.48 1430.05 96.48C1430.29 96.48 1430.49 96.28 1430.49 96.04V88.0201Z" fill="#1D1D1B"/><path d="M1430.49 104.06C1430.49 103.82 1430.29 103.62 1430.05 103.62C1429.81 103.62 1429.61 103.82 1429.61 104.06V112.08C1429.61 112.32 1429.81 112.52 1430.05 112.52C1430.29 112.52 1430.49 112.32 1430.49 112.08V104.06Z" fill="#1D1D1B"/><path d="M1430.49 152.16C1430.49 151.92 1430.29 151.72 1430.05 151.72C1429.81 151.72 1429.61 151.92 1429.61 152.16V160.18C1429.61 160.42 1429.81 160.62 1430.05 160.62C1430.29 160.62 1430.49 160.42 1430.49 160.18V152.16Z" fill="#1D1D1B"/><path d="M1430.49 136.13C1430.49 135.89 1430.29 135.69 1430.05 135.69C1429.81 135.69 1429.61 135.89 1429.61 136.13V144.15C1429.61 144.39 1429.81 144.59 1430.05 144.59C1430.29 144.59 1430.49 144.39 1430.49 144.15V136.13Z" fill="#1D1D1B"/><path d="M1430.49 120.1C1430.49 119.86 1430.29 119.66 1430.05 119.66C1429.81 119.66 1429.61 119.86 1429.61 120.1V128.12C1429.61 128.37 1429.81 128.56 1430.05 128.56C1430.29 128.56 1430.49 128.36 1430.49 128.12V120.1Z" fill="#1D1D1B"/><path d="M1430.49 71.9898C1430.49 71.7498 1430.29 71.5498 1430.05 71.5498C1429.81 71.5498 1429.61 71.7498 1429.61 71.9898V80.0098C1429.61 80.2498 1429.81 80.4498 1430.05 80.4498C1430.29 80.4498 1430.49 80.2498 1430.49 80.0098V71.9898Z" fill="#1D1D1B"/><path d="M1715.55 38.8697C1715.69 38.6097 1715.81 38.3397 1715.97 38.0897L1584.11 -41.0303C1583.97 -40.7703 1583.85 -40.5003 1583.68 -40.2603L1715.55 38.8597V38.8697Z" fill="#1D1D1B"/><path d="M1576.87 -36.9199V123.86C1577.02 123.86 1577.16 123.82 1577.31 123.82C1577.46 123.82 1577.6 123.86 1577.75 123.86V-36.9199C1577.6 -36.9199 1577.46 -36.8799 1577.31 -36.8799C1577.16 -36.8799 1577.02 -36.9199 1576.87 -36.9199Z" fill="#1D1D1B"/><path d="M845.86 43.7697C845.86 41.0997 843.69 38.9297 841.02 38.9297C838.35 38.9297 836.18 41.0997 836.18 43.7697C836.18 46.4397 838.35 48.6097 841.02 48.6097C843.69 48.6097 845.86 46.4397 845.86 43.7697Z" fill="#3A679F"/><path d="M988.279 127.28C985.609 127.28 983.439 129.45 983.439 132.12C983.439 132.87 983.629 133.58 983.929 134.21C984.059 134.48 984.209 134.73 984.379 134.97C985.179 136.06 986.409 136.78 987.829 136.91C987.979 136.92 988.119 136.95 988.269 136.95C988.419 136.95 988.559 136.92 988.709 136.91C991.169 136.68 993.109 134.64 993.109 132.12C993.109 131.37 992.919 130.66 992.619 130.03C992.489 129.76 992.339 129.51 992.169 129.27C991.289 128.07 989.879 127.28 988.279 127.28Z" fill="#3A679F"/><path d="M841.02 213.14C838.51 213.14 836.29 214.41 834.97 216.33C834.8 216.57 834.68 216.84 834.54 217.1C834.01 218.11 833.68 219.25 833.68 220.47C833.68 224.52 836.97 227.81 841.02 227.81C845.07 227.81 848.36 224.52 848.36 220.47C848.36 219.25 848.03 218.11 847.5 217.1C847.36 216.84 847.24 216.57 847.07 216.33C845.75 214.4 843.53 213.14 841.02 213.14Z" fill="#3A679F"/><path d="M1143.16 220.48C1143.16 219.2 1142.82 218.02 1142.26 216.96C1142.12 216.7 1142 216.43 1141.83 216.19C1140.46 214.18 1138.15 212.86 1135.53 212.86C1131.32 212.86 1127.9 216.27 1127.9 220.49C1127.9 224.71 1131.32 228.12 1135.53 228.12C1138.15 228.12 1140.46 226.8 1141.83 224.79C1142 224.55 1142.12 224.28 1142.26 224.02C1142.81 222.96 1143.16 221.78 1143.16 220.5V220.48Z" fill="#3A679F"/><path d="M1127.99 43.77C1127.99 45.03 1128.33 46.2 1128.88 47.25C1129.02 47.51 1129.14 47.78 1129.31 48.02C1130.67 50.01 1132.95 51.31 1135.54 51.31C1139.7 51.31 1143.08 47.93 1143.08 43.77C1143.08 39.61 1139.7 36.23 1135.54 36.23C1132.95 36.23 1130.67 37.54 1129.31 39.52C1129.14 39.76 1129.02 40.03 1128.88 40.29C1128.33 41.34 1127.99 42.51 1127.99 43.77Z" fill="#3A679F"/><path d="M1429.68 55.77C1429.8 55.77 1429.92 55.79 1430.05 55.79C1430.18 55.79 1430.29 55.78 1430.42 55.77C1436.89 55.58 1442.08 50.28 1442.08 43.77C1442.08 37.26 1436.7 31.75 1430.06 31.75C1423.42 31.75 1418.04 37.13 1418.04 43.77C1418.04 45.88 1418.58 47.85 1419.53 49.57C1419.67 49.83 1419.83 50.08 1419.99 50.33C1422.07 53.52 1425.63 55.65 1429.69 55.78L1429.68 55.77Z" fill="#3A679F"/><path d="M1282.79 139.5C1286.86 139.5 1290.16 136.2 1290.16 132.13C1290.16 130.9 1289.83 129.76 1289.3 128.74C1289.16 128.48 1289.04 128.21 1288.87 127.97C1287.62 126.15 1285.57 124.95 1283.23 124.8C1283.08 124.8 1282.94 124.76 1282.79 124.76C1282.64 124.76 1282.5 124.8 1282.35 124.8C1278.49 125.03 1275.42 128.21 1275.42 132.13C1275.42 133.36 1275.75 134.5 1276.28 135.52C1276.42 135.78 1276.54 136.05 1276.71 136.29C1278.04 138.23 1280.27 139.5 1282.79 139.5Z" fill="#3A679F"/><path d="M1430.05 229.01C1434.76 229.01 1438.58 225.19 1438.58 220.48C1438.58 215.77 1434.76 211.95 1430.05 211.95C1425.34 211.95 1421.52 215.77 1421.52 220.48C1421.52 221.93 1421.91 223.27 1422.55 224.46C1422.69 224.72 1422.81 224.99 1422.97 225.24C1424.5 227.51 1427.1 229.01 1430.05 229.01Z" fill="#3A679F"/><path d="M1576.87 123.86C1572.49 124.09 1569.01 127.69 1569.01 132.12C1569.01 136.55 1572.73 140.43 1577.31 140.43C1581.89 140.43 1585.62 136.71 1585.62 132.12C1585.62 127.53 1582.13 124.09 1577.76 123.86C1577.61 123.86 1577.47 123.82 1577.32 123.82C1577.17 123.82 1577.03 123.86 1576.88 123.86H1576.87Z" fill="#3A679F"/></g><path d="M928.929 -8.46045C928.839 -8.61045 928.759 -8.77041 928.679 -8.92041L854.569 35.5496C854.659 35.6996 854.739 35.8596 854.819 36.0096L928.929 -8.46045Z" fill="#1D1D1B"/><path d="M848.57 46.6096C848.48 46.6096 848.4 46.5896 848.31 46.5796V139.61C848.4 139.61 848.48 139.58 848.57 139.58C848.66 139.58 848.74 139.6 848.83 139.61V46.5796C848.74 46.5796 848.66 46.6096 848.57 46.6096Z" fill="#1D1D1B"/><path d="M851.939 141.35C852.039 141.49 852.119 141.65 852.199 141.8L930.499 94.8199C930.399 94.6799 930.329 94.5099 930.249 94.3599L851.949 141.34L851.939 141.35Z" fill="#1D1D1B"/><path d="M940.58 198.58C940.5 198.73 940.43 198.89 940.33 199.04L1019.55 246.57C1019.63 246.41 1019.71 246.26 1019.82 246.12L940.59 198.58H940.58Z" fill="#1D1D1B"/><path d="M1016.12 147.7C1016.03 147.55 1015.95 147.39 1015.87 147.24L940.33 192.57C940.43 192.71 940.5 192.88 940.58 193.03L1016.12 147.7Z" fill="#1D1D1B"/><path d="M935.44 -4.9104C935.35 -4.9104 935.27 -4.93043 935.18 -4.94043V85.6596C935.27 85.6596 935.35 85.6296 935.44 85.6296C935.53 85.6296 935.61 85.6496 935.7 85.6596V-4.94043C935.61 -4.94043 935.53 -4.9104 935.44 -4.9104Z" fill="#1D1D1B"/><path d="M940.62 94.3696C940.54 94.5196 940.47 94.6797 940.37 94.8297L1015.87 140.13C1015.95 139.98 1016.02 139.82 1016.12 139.67L940.62 94.3696Z" fill="#1D1D1B"/><path d="M941.949 -8.46045L1018.48 37.4596C1018.56 37.2996 1018.64 37.1496 1018.73 36.9996L942.189 -8.92041C942.109 -8.77041 942.039 -8.61045 941.939 -8.46045H941.949Z" fill="#1D1D1B"/><path d="M1022.04 -61.9604V35.1396C1022.13 35.1396 1022.21 35.1096 1022.3 35.1096C1022.39 35.1096 1022.47 35.1296 1022.56 35.1396V-61.9604C1022.47 -61.9604 1022.39 -61.9304 1022.3 -61.9304C1022.21 -61.9304 1022.13 -61.9504 1022.04 -61.9604Z" fill="#1D1D1B"/><path d="M1022.04 43.7495V136.33C1022.13 136.33 1022.21 136.299 1022.3 136.299C1022.39 136.299 1022.47 136.32 1022.56 136.33V43.7495C1022.47 43.7495 1022.39 43.7795 1022.3 43.7795C1022.21 43.7795 1022.13 43.7595 1022.04 43.7495Z" fill="#1D1D1B"/><path d="M1022.04 151.04V244.87C1022.13 244.87 1022.21 244.84 1022.3 244.84C1022.39 244.84 1022.47 244.86 1022.56 244.87V151.04C1022.47 151.04 1022.39 151.07 1022.3 151.07C1022.21 151.07 1022.13 151.05 1022.04 151.04Z" fill="#1D1D1B"/><path d="M1199.75 41.9797L1279.25 89.6797C1279.33 89.5297 1279.41 89.3697 1279.51 89.2297L1200.01 41.5298C1199.93 41.6798 1199.85 41.8397 1199.76 41.9897L1199.75 41.9797Z" fill="#1D1D1B"/><path d="M1279.31 -10.2202C1279.21 -10.3602 1279.14 -10.5202 1279.06 -10.6802L1199.75 36.9099C1199.85 37.0499 1199.92 37.2098 1200 37.3698L1279.31 -10.2202Z" fill="#1D1D1B"/><path d="M1196.29 137.72V43.9097C1196.2 43.9097 1196.12 43.9396 1196.03 43.9396C1195.94 43.9396 1195.86 43.9197 1195.77 43.9097V137.71C1195.86 137.71 1195.94 137.68 1196.03 137.68C1196.12 137.68 1196.2 137.7 1196.29 137.71V137.72Z" fill="#1D1D1B"/><path d="M1201.02 140.379C1201.12 140.519 1201.19 140.689 1201.27 140.839L1279.5 93.8995C1279.4 93.7595 1279.32 93.5995 1279.24 93.4395L1201.02 140.369V140.379Z" fill="#1D1D1B"/><path d="M1289.75 199.61C1289.66 199.76 1289.59 199.92 1289.5 200.07L1364.47 245.05C1364.55 244.9 1364.62 244.73 1364.72 244.59L1289.75 199.61Z" fill="#1D1D1B"/><path d="M1283.16 187.95V95.6597C1283.07 95.6597 1282.99 95.6896 1282.9 95.6896C1282.81 95.6896 1282.73 95.6697 1282.64 95.6597V187.95C1282.73 187.95 1282.81 187.92 1282.9 187.92C1282.99 187.92 1283.07 187.94 1283.16 187.95Z" fill="#1D1D1B"/><path d="M1366.37 141.95C1366.45 141.79 1366.53 141.64 1366.63 141.5L1286.55 93.4497C1286.47 93.6097 1286.39 93.7597 1286.29 93.9097L1366.37 141.96V141.95Z" fill="#1D1D1B"/><path d="M1365.59 36.6396L1286.74 -10.6704C1286.66 -10.5104 1286.58 -10.3604 1286.49 -10.2104L1365.34 37.0996C1365.42 36.9496 1365.49 36.7796 1365.59 36.6396Z" fill="#1D1D1B"/><path d="M1286.29 89.2198C1286.39 89.3598 1286.47 89.5198 1286.55 89.6798L1365.59 42.2598C1365.49 42.1198 1365.42 41.9598 1365.34 41.7998L1286.3 89.2298L1286.29 89.2198Z" fill="#1D1D1B"/><path d="M1369.5 -57.7305V34.4395C1369.59 34.4395 1369.67 34.4095 1369.76 34.4095C1369.85 34.4095 1369.93 34.4295 1370.02 34.4395V-57.7305C1369.93 -57.7305 1369.85 -57.7005 1369.76 -57.7005C1369.67 -57.7005 1369.59 -57.7205 1369.5 -57.7305Z" fill="#1D1D1B"/><path d="M1369.5 147.479V241.9C1369.59 241.9 1369.67 241.87 1369.76 241.87C1369.85 241.87 1369.93 241.89 1370.02 241.9V147.479C1369.93 147.479 1369.85 147.51 1369.76 147.51C1369.67 147.51 1369.59 147.489 1369.5 147.479Z" fill="#1D1D1B"/><path d="M1450.66 95.4498C1450.57 95.2998 1450.49 95.1397 1450.41 94.9897L1372.89 141.5C1372.99 141.64 1373.07 141.8 1373.15 141.95L1450.66 95.4498Z" fill="#1D1D1B"/><path d="M1539.22 245.66C1539.3 245.51 1539.37 245.34 1539.47 245.2L1460.78 197.979C1460.7 198.129 1460.63 198.29 1460.53 198.44L1539.23 245.66H1539.22Z" fill="#1D1D1B"/><path d="M1456.37 98.6699V191.12C1456.46 191.12 1456.54 191.09 1456.63 191.09C1456.72 191.09 1456.8 191.11 1456.89 191.12V98.6699C1456.8 98.6699 1456.72 98.7 1456.63 98.7C1456.54 98.7 1456.46 98.6799 1456.37 98.6699Z" fill="#1D1D1B"/><path d="M1456.37 -7.80029V84.4597C1456.46 84.4597 1456.54 84.4297 1456.63 84.4297C1456.72 84.4297 1456.8 84.4497 1456.89 84.4597V-7.80029C1456.8 -7.80029 1456.72 -7.77032 1456.63 -7.77032C1456.54 -7.77032 1456.46 -7.79029 1456.37 -7.80029Z" fill="#1D1D1B"/><path d="M1713.39 245.92C1713.47 245.77 1713.55 245.61 1713.64 245.46L1633.5 197.38C1633.42 197.54 1633.34 197.69 1633.24 197.83L1713.39 245.92Z" fill="#1D1D1B"/><path d="M1627.48 197.84C1627.38 197.7 1627.3 197.54 1627.22 197.39L1547.52 245.21C1547.62 245.35 1547.69 245.51 1547.77 245.67L1627.48 197.84Z" fill="#1D1D1B"/><path d="M848.83 139.61C848.74 139.61 848.66 139.58 848.57 139.58C848.48 139.58 848.4 139.6 848.31 139.61C847.02 139.69 845.89 140.36 845.2 141.36C845.1 141.5 845.02 141.66 844.94 141.81C844.65 142.37 844.47 143 844.47 143.68C844.47 145.94 846.31 147.78 848.57 147.78C850.83 147.78 852.67 145.94 852.67 143.68C852.67 143 852.49 142.37 852.2 141.81C852.12 141.65 852.04 141.5 851.94 141.36C851.25 140.36 850.12 139.7 848.83 139.61Z" fill="#3A679F"/><path d="M848.83 46.5798C852.66 46.4398 855.73 43.3098 855.73 39.4398C855.73 38.1798 855.38 37.0198 854.81 35.9998C854.73 35.8498 854.66 35.6897 854.56 35.5397C853.28 33.5797 851.08 32.2798 848.56 32.2798C846.04 32.2798 843.84 33.5797 842.56 35.5397C842.47 35.6897 842.4 35.8498 842.31 35.9998C841.74 37.0298 841.39 38.1898 841.39 39.4398C841.39 40.6898 841.74 41.8598 842.31 42.8798C842.39 43.0298 842.46 43.1898 842.56 43.3398C843.79 45.2298 845.89 46.4898 848.3 46.5798C848.39 46.5798 848.47 46.6097 848.56 46.6097C848.65 46.6097 848.73 46.5898 848.82 46.5798H848.83Z" fill="#3A679F"/><path d="M941.309 195.8C941.309 194.79 941.029 193.85 940.579 193.02C940.499 192.87 940.429 192.71 940.329 192.56C939.279 190.98 937.479 189.93 935.439 189.93C932.199 189.93 929.569 192.56 929.569 195.8C929.569 199.04 932.059 201.5 935.179 201.64C935.269 201.64 935.349 201.67 935.439 201.67C935.529 201.67 935.609 201.65 935.699 201.64C937.629 201.55 939.329 200.55 940.329 199.03C940.429 198.89 940.499 198.72 940.579 198.57C941.029 197.74 941.309 196.8 941.309 195.79V195.8Z" fill="#3A679F"/><path d="M941.36 91.5599C941.36 88.3799 938.84 85.7999 935.7 85.6599C935.61 85.6599 935.53 85.6299 935.44 85.6299C935.35 85.6299 935.27 85.6499 935.18 85.6599C932.03 85.7999 929.51 88.3799 929.51 91.5599C929.51 92.5799 929.79 93.5299 930.25 94.3699C930.33 94.5199 930.4 94.6799 930.5 94.8299C931.56 96.4299 933.37 97.4899 935.44 97.4899C937.51 97.4899 939.32 96.4299 940.38 94.8299C940.48 94.6899 940.55 94.5199 940.63 94.3699C941.09 93.5299 941.37 92.5799 941.37 91.5599H941.36Z" fill="#3A679F"/><path d="M1022.04 35.1396C1020.67 35.2196 1019.47 35.9296 1018.73 36.9996C1018.63 37.1396 1018.56 37.2997 1018.48 37.4597C1018.17 38.0597 1017.97 38.7296 1017.97 39.4496C1017.97 41.7496 1019.77 43.6196 1022.04 43.7496C1022.13 43.7496 1022.21 43.7797 1022.3 43.7797C1022.39 43.7797 1022.47 43.7596 1022.56 43.7496C1024.83 43.6096 1026.63 41.7496 1026.63 39.4496C1026.63 37.1496 1024.83 35.2797 1022.56 35.1497C1022.47 35.1497 1022.39 35.1196 1022.3 35.1196C1022.21 35.1196 1022.13 35.1397 1022.04 35.1497V35.1396Z" fill="#3A679F"/><path d="M1022.04 244.87C1021.12 244.95 1020.32 245.42 1019.81 246.12C1019.71 246.26 1019.62 246.41 1019.54 246.57C1019.34 246.98 1019.22 247.43 1019.22 247.92C1019.22 249.53 1020.46 250.84 1022.04 250.97C1022.13 250.97 1022.21 251 1022.3 251C1022.39 251 1022.47 250.98 1022.56 250.97C1024.14 250.84 1025.38 249.53 1025.38 247.92C1025.38 246.31 1024.14 245 1022.56 244.87C1022.47 244.87 1022.39 244.84 1022.3 244.84C1022.21 244.84 1022.13 244.86 1022.04 244.87Z" fill="#3A679F"/><path d="M1022.04 136.33C1019.56 136.42 1017.39 137.72 1016.12 139.67C1016.03 139.82 1015.96 139.98 1015.87 140.13C1015.28 141.19 1014.92 142.39 1014.92 143.69C1014.92 144.99 1015.28 146.18 1015.87 147.24C1015.95 147.39 1016.02 147.55 1016.12 147.7C1017.39 149.65 1019.56 150.95 1022.04 151.04C1022.13 151.04 1022.21 151.07 1022.3 151.07C1022.39 151.07 1022.47 151.05 1022.56 151.04C1026.51 150.9 1029.68 147.67 1029.68 143.69C1029.68 139.71 1026.51 136.48 1022.56 136.33C1022.47 136.33 1022.39 136.3 1022.3 136.3C1022.21 136.3 1022.13 136.32 1022.04 136.33Z" fill="#3A679F"/><path d="M1196.29 137.719C1196.2 137.719 1196.12 137.689 1196.03 137.689C1195.94 137.689 1195.86 137.709 1195.77 137.719C1192.59 137.859 1190.04 140.459 1190.04 143.679C1190.04 146.899 1192.72 149.669 1196.03 149.669C1199.34 149.669 1202.02 146.989 1202.02 143.679C1202.02 142.649 1201.73 141.689 1201.27 140.839C1201.19 140.689 1201.12 140.529 1201.02 140.379C1199.99 138.829 1198.27 137.809 1196.29 137.719Z" fill="#3A679F"/><path d="M1196.29 43.9194C1197.72 43.8394 1198.98 43.0994 1199.75 41.9794C1199.85 41.8394 1199.92 41.6795 1200 41.5195C1200.33 40.8995 1200.53 40.1995 1200.53 39.4395C1200.53 38.6795 1200.33 37.9894 1200 37.3594C1199.92 37.2094 1199.84 37.0495 1199.75 36.8995C1198.94 35.7095 1197.58 34.9395 1196.04 34.9395C1193.55 34.9395 1191.54 36.9495 1191.54 39.4395C1191.54 41.9295 1193.42 43.7795 1195.78 43.9095C1195.87 43.9095 1195.95 43.9395 1196.04 43.9395C1196.13 43.9395 1196.21 43.9195 1196.3 43.9095L1196.29 43.9194Z" fill="#3A679F"/><path d="M1201.68 247.919C1201.68 244.799 1199.15 242.27 1196.04 242.27C1192.93 242.27 1190.4 244.799 1190.4 247.919C1190.4 251.039 1192.93 253.56 1196.04 253.56C1198 253.56 1199.73 252.559 1200.74 251.039C1200.84 250.899 1200.91 250.73 1200.99 250.58C1201.42 249.78 1201.69 248.889 1201.69 247.919H1201.68Z" fill="#3A679F"/><path d="M1290.77 195.8C1290.77 191.54 1287.38 188.09 1283.15 187.95C1283.06 187.95 1282.98 187.92 1282.89 187.92C1282.8 187.92 1282.72 187.94 1282.63 187.95C1278.4 188.09 1275.01 191.54 1275.01 195.8C1275.01 200.06 1278.4 203.51 1282.63 203.65C1282.72 203.65 1282.8 203.68 1282.89 203.68C1282.98 203.68 1283.06 203.66 1283.15 203.65C1285.81 203.56 1288.14 202.16 1289.49 200.07C1289.58 199.92 1289.65 199.76 1289.74 199.61C1290.37 198.48 1290.76 197.19 1290.76 195.8H1290.77Z" fill="#3A679F"/><path d="M1283.16 95.6699C1284.46 95.5899 1285.6 94.92 1286.3 93.91C1286.4 93.77 1286.48 93.61 1286.56 93.45C1286.85 92.88 1287.04 92.2499 1287.04 91.5599C1287.04 90.8699 1286.86 90.2399 1286.56 89.6699C1286.48 89.5099 1286.4 89.36 1286.3 89.21C1285.56 88.13 1284.31 87.4199 1282.9 87.4199C1281.49 87.4199 1280.25 88.13 1279.5 89.21C1279.4 89.35 1279.32 89.51 1279.24 89.66C1278.95 90.23 1278.76 90.8599 1278.76 91.5499C1278.76 92.2399 1278.94 92.8699 1279.24 93.4399C1279.32 93.5999 1279.4 93.75 1279.5 93.9C1280.2 94.91 1281.34 95.58 1282.64 95.66C1282.73 95.66 1282.81 95.6899 1282.9 95.6899C1282.99 95.6899 1283.07 95.67 1283.16 95.66V95.6699Z" fill="#3A679F"/><path d="M1369.5 34.4396C1367.87 34.5196 1366.44 35.3596 1365.59 36.6396C1365.49 36.7796 1365.42 36.9497 1365.34 37.0997C1364.96 37.7997 1364.73 38.5996 1364.73 39.4496C1364.73 40.2996 1364.96 41.0896 1365.34 41.7996C1365.42 41.9496 1365.49 42.1196 1365.59 42.2596C1366.49 43.5996 1368.03 44.4796 1369.76 44.4796C1372.54 44.4796 1374.79 42.2296 1374.79 39.4496C1374.79 36.6696 1372.67 34.5796 1370.02 34.4396C1369.93 34.4396 1369.85 34.4097 1369.76 34.4097C1369.67 34.4097 1369.59 34.4296 1369.5 34.4396Z" fill="#3A679F"/><path d="M1375.81 247.92C1375.81 244.67 1373.24 242.04 1370.03 241.9C1369.94 241.9 1369.86 241.87 1369.77 241.87C1369.68 241.87 1369.6 241.89 1369.51 241.9C1367.51 241.99 1365.77 243.02 1364.73 244.59C1364.63 244.73 1364.56 244.9 1364.48 245.05C1364.01 245.91 1363.72 246.88 1363.72 247.92C1363.72 251.17 1366.29 253.8 1369.51 253.94C1369.6 253.94 1369.68 253.97 1369.77 253.97C1369.86 253.97 1369.94 253.95 1370.03 253.94C1372.03 253.85 1373.77 252.82 1374.81 251.25C1374.91 251.11 1374.98 250.94 1375.06 250.79C1375.53 249.93 1375.82 248.97 1375.82 247.92H1375.81Z" fill="#3A679F"/><path d="M1365.94 143.68C1365.94 145.7 1367.52 147.34 1369.5 147.48C1369.59 147.48 1369.67 147.51 1369.76 147.51C1369.85 147.51 1369.93 147.49 1370.02 147.48C1372.01 147.34 1373.58 145.71 1373.58 143.68C1373.58 143.05 1373.41 142.47 1373.15 141.95C1373.07 141.79 1372.99 141.64 1372.89 141.5C1372.2 140.51 1371.06 139.86 1369.76 139.86C1368.46 139.86 1367.32 140.51 1366.63 141.5C1366.53 141.64 1366.45 141.8 1366.37 141.95C1366.1 142.47 1365.94 143.05 1365.94 143.68Z" fill="#3A679F"/><path d="M1456.37 191.12C1453.89 191.26 1451.92 193.29 1451.92 195.8C1451.92 198.31 1453.89 200.34 1456.37 200.48C1456.46 200.48 1456.54 200.51 1456.63 200.51C1456.72 200.51 1456.8 200.49 1456.89 200.48C1458.4 200.4 1459.73 199.62 1460.53 198.44C1460.63 198.3 1460.7 198.14 1460.78 197.98C1461.13 197.32 1461.34 196.59 1461.34 195.8C1461.34 193.29 1459.37 191.26 1456.89 191.12C1456.8 191.12 1456.72 191.09 1456.63 191.09C1456.54 191.09 1456.46 191.11 1456.37 191.12Z" fill="#3A679F"/><path d="M1456.37 84.4595C1452.56 84.5995 1449.5 87.7194 1449.5 91.5594C1449.5 92.8094 1449.85 93.9594 1450.41 94.9894C1450.49 95.1394 1450.56 95.2995 1450.66 95.4495C1451.89 97.3295 1453.98 98.5794 1456.37 98.6694C1456.46 98.6694 1456.54 98.6995 1456.63 98.6995C1456.72 98.6995 1456.8 98.6794 1456.89 98.6694C1460.7 98.5294 1463.76 95.4095 1463.76 91.5695C1463.76 87.7295 1460.7 84.6095 1456.89 84.4695C1456.8 84.4695 1456.72 84.4395 1456.63 84.4395C1456.54 84.4395 1456.46 84.4595 1456.37 84.4695V84.4595Z" fill="#3A679F"/><path d="M1538.64 247.92C1538.64 250.51 1540.68 252.61 1543.24 252.75C1543.33 252.75 1543.41 252.78 1543.5 252.78C1543.59 252.78 1543.67 252.76 1543.76 252.75C1546.32 252.61 1548.36 250.51 1548.36 247.92C1548.36 247.1 1548.14 246.34 1547.78 245.66C1547.7 245.51 1547.63 245.34 1547.53 245.2C1546.66 243.91 1545.18 243.06 1543.51 243.06C1541.84 243.06 1540.36 243.91 1539.49 245.2C1539.39 245.34 1539.32 245.5 1539.24 245.66C1538.88 246.34 1538.66 247.1 1538.66 247.92H1538.64Z" fill="#3A679F"/><path d="M1630.1 199.31C1630.19 199.31 1630.27 199.34 1630.36 199.34C1630.45 199.34 1630.53 199.32 1630.62 199.31C1631.7 199.23 1632.65 198.67 1633.24 197.84C1633.34 197.7 1633.42 197.54 1633.5 197.39C1633.74 196.91 1633.89 196.38 1633.89 195.81C1633.89 193.86 1632.31 192.28 1630.36 192.28C1628.41 192.28 1626.83 193.86 1626.83 195.81C1626.83 196.38 1626.98 196.91 1627.22 197.39C1627.3 197.55 1627.38 197.7 1627.48 197.84C1628.07 198.68 1629.02 199.23 1630.1 199.31Z" fill="#3A679F"/></g></svg>