<svg width="112" height="112" viewBox="0 0 112 112" fill="none" xmlns="http://www.w3.org/2000/svg"><rect x="1.71359" y="1.71359" width="108.573" height="108.573" rx="54.2864" fill="#1D334F"/><rect x="1.71359" y="1.71359" width="108.573" height="108.573" rx="54.2864" stroke="white" stroke-width="2.57282"/><path d="M42.4421 57.576C40.3941 57.576 38.5381 57.224 36.8741 56.52C35.2421 55.816 33.9461 54.84 32.9861 53.592C32.0581 52.344 31.5941 50.888 31.5941 49.224C31.5941 48.04 31.8021 47.016 32.2181 46.152C32.6661 45.256 33.2581 44.472 33.9941 43.8C34.7621 43.128 35.6261 42.536 36.5861 42.024V41.832C35.4021 40.904 34.4261 39.864 33.6581 38.712C32.9221 37.56 32.5541 36.2 32.5541 34.632C32.5541 32.84 32.9861 31.304 33.8501 30.024C34.7141 28.712 35.9141 27.72 37.4501 27.048C38.9861 26.344 40.7461 25.992 42.7301 25.992C45.5781 25.992 47.8661 26.76 49.5941 28.296C51.3541 29.8 52.2341 31.848 52.2341 34.44C52.2341 35.368 52.0581 36.232 51.7061 37.032C51.3541 37.832 50.8901 38.552 50.3141 39.192C49.7381 39.8 49.0821 40.344 48.3461 40.824V41.016C49.3381 41.528 50.2181 42.152 50.9861 42.888C51.7861 43.624 52.4101 44.504 52.8581 45.528C53.3381 46.52 53.5781 47.688 53.5781 49.032C53.5781 50.664 53.1141 52.12 52.1861 53.4C51.2581 54.68 49.9621 55.704 48.2981 56.472C46.6341 57.208 44.6821 57.576 42.4421 57.576ZM42.6341 51.912C43.2421 51.912 43.7861 51.816 44.2661 51.624C44.7781 51.4 45.1781 51.064 45.4661 50.616C45.7861 50.136 45.9461 49.512 45.9461 48.744C45.9461 48.008 45.7221 47.4 45.2741 46.92C44.8261 46.408 44.1701 45.944 43.3061 45.528C42.4741 45.112 41.4501 44.648 40.2341 44.136C39.7861 44.648 39.4021 45.272 39.0821 46.008C38.7941 46.744 38.6501 47.496 38.6501 48.264C38.6501 49.064 38.8261 49.736 39.1781 50.28C39.5621 50.824 40.0581 51.24 40.6661 51.528C41.2741 51.784 41.9301 51.912 42.6341 51.912ZM44.2661 38.856C44.7141 38.216 45.0501 37.592 45.2741 36.984C45.4981 36.344 45.6101 35.688 45.6101 35.016C45.6101 34.312 45.4821 33.72 45.2261 33.24C45.0021 32.728 44.6501 32.344 44.1701 32.088C43.7221 31.8 43.1781 31.656 42.5381 31.656C41.8021 31.656 41.1461 31.896 40.5701 32.376C40.0261 32.824 39.7541 33.576 39.7541 34.632C39.7541 35.304 39.9301 35.88 40.2821 36.36C40.6341 36.84 41.1461 37.288 41.8181 37.704C42.4901 38.088 43.3061 38.472 44.2661 38.856ZM68.46 57.576C65.1 57.576 62.364 56.232 60.252 53.544C58.172 50.824 57.132 46.856 57.132 41.64C57.132 36.424 58.172 32.52 60.252 29.928C62.364 27.304 65.1 25.992 68.46 25.992C71.82 25.992 74.54 27.304 76.62 29.928C78.732 32.552 79.788 36.456 79.788 41.64C79.788 46.856 78.732 50.824 76.62 53.544C74.54 56.232 71.82 57.576 68.46 57.576ZM68.46 51.24C69.1 51.24 69.692 51 70.236 50.52C70.78 50.04 71.212 49.112 71.532 47.736C71.852 46.36 72.012 44.328 72.012 41.64C72.012 38.952 71.852 36.952 71.532 35.64C71.212 34.296 70.78 33.416 70.236 33C69.692 32.552 69.1 32.328 68.46 32.328C67.82 32.328 67.228 32.552 66.684 33C66.14 33.416 65.708 34.296 65.388 35.64C65.068 36.952 64.908 38.952 64.908 41.64C64.908 44.328 65.068 46.36 65.388 47.736C65.708 49.112 66.14 50.04 66.684 50.52C67.228 51 67.82 51.24 68.46 51.24ZM27.0874 82V66.4H31.2154V72.208H31.3114L35.2474 66.4H39.7594L35.1034 72.736L40.6714 82H36.1594L32.7034 76L31.2154 78.112V82H27.0874ZM41.8217 82V70H45.1817L45.4697 71.464H45.5657C46.0457 71 46.5577 70.592 47.1017 70.24C47.6617 69.888 48.3497 69.712 49.1657 69.712C49.9817 69.712 50.6537 69.88 51.1817 70.216C51.7257 70.536 52.1577 71.008 52.4777 71.632C52.9737 71.12 53.5097 70.672 54.0857 70.288C54.6617 69.904 55.3577 69.712 56.1737 69.712C57.5017 69.712 58.4617 70.16 59.0537 71.056C59.6617 71.936 59.9657 73.12 59.9657 74.608V82H55.8377V75.136C55.8377 74.368 55.7417 73.856 55.5497 73.6C55.3577 73.344 55.0537 73.216 54.6377 73.216C54.3977 73.216 54.1337 73.288 53.8457 73.432C53.5737 73.576 53.2777 73.808 52.9577 74.128V82H48.8297V75.136C48.8297 74.368 48.7337 73.856 48.5417 73.6C48.3497 73.344 48.0457 73.216 47.6297 73.216C47.1177 73.216 46.5577 73.52 45.9497 74.128V82H41.8217ZM61.6016 85.84L65.8256 64.96H68.4656L64.2416 85.84H61.6016ZM71.0093 82V66.4H75.1373V72.208H79.7933V66.4H83.9213V82H79.7933V75.808H75.1373V82H71.0093Z" fill="white"/><circle cx="56.5" cy="55.5" r="47" stroke="white" stroke-width="3"/></svg>