<svg width="148" height="56" viewBox="0 0 148 56" fill="none" xmlns="http://www.w3.org/2000/svg"><g clip-path="url(#clip0_119_29)"><path d="M84.9298 46.7631C81.0921 46.7631 78.8062 48.0669 76.4146 49.6682C75.7443 50.1161 75.098 50.5641 74.4533 50.9832C73.7207 51.4679 72.9624 51.9126 72.1802 52.3141C70.4829 53.17 68.52 53.8083 66.1412 53.8083L6.10571 53.8451L101.52 9.68506L144.039 46.7615H84.9298V46.7631Z" fill="black"/><path d="M102.28 4.48413L7.30713 50.1607L66.1317 50.1255C72.8505 50.1255 75.114 43.0803 84.9203 43.0803H146.14L102.28 4.48413Z" fill="white" stroke="black" stroke-width="1.43974" stroke-miterlimit="10"/><path d="M68.4416 23.4473H14.7985V40.7417H68.4416V23.4473Z" fill="white"/><path d="M7.36461 29.0319L6.79672 31.1275H12.3877L11.7926 33.6998H6.08645L5.41777 36.1442H12.1254L11.4967 38.7165H0.666626L3.50291 28.0304C3.72847 27.013 4.37635 26.4531 5.00664 26.4531H14.325L13.6899 29.0239L7.36461 29.0303V29.0319Z" fill="#161616"/><path d="M12.7893 38.718L15.7424 26.4626H19.4073L16.4526 38.718H12.7893Z" fill="#161616"/><path d="M25.9981 29.7213C29.8454 29.7213 30.5765 32.172 30.1541 33.9189C29.4311 36.9232 25.6301 38.718 21.8596 38.718H17.9819L20.935 26.4626H24.5999L23.8145 29.7213H25.9981ZM22.3475 36.4672C24.312 36.2817 25.9885 35.4354 26.3404 33.9765C26.678 32.5863 25.2446 31.9705 24.6223 31.9705H23.2786L22.1924 36.4816L22.3491 36.4656L22.3475 36.4672Z" fill="#161616"/><path d="M29.863 38.7181L32.0306 29.7197H35.6956L33.5264 38.7181H29.8646H29.863ZM32.2738 28.7039L32.8161 26.4531H36.4794L35.9387 28.7039H32.2738Z" fill="#161616"/><path d="M43.2141 29.7197L42.691 31.8954H40.6386L39.7668 35.5123C39.6436 36.0258 39.8084 36.4433 40.6802 36.4769H42.0112L40.5874 38.7277H38.8821C36.7465 38.7277 35.4699 38.1438 35.9754 36.0482L36.9753 31.9034H36.1002L36.6249 29.7277H37.5L38.0119 27.6113L41.9184 26.4819L41.1633 29.7277L43.2141 29.7213V29.7197Z" fill="#161616"/><path d="M55.6023 29.0318C55.2776 29.019 54.9512 29.027 54.6281 29.0574C54.2873 29.0958 53.8698 29.1966 53.793 29.5373C53.7498 29.7421 53.801 29.9565 53.9322 30.118C53.9914 30.1948 54.0554 30.2684 54.1242 30.3372L54.3145 30.5292L56.7381 33.0519C57.5732 33.919 58.3218 34.7588 58.0419 35.9186C57.7875 36.9728 56.5813 38.7197 52.982 38.7197H48.218L47.9093 36.1473H51.5278C51.8526 36.1601 52.1773 36.1521 52.5021 36.125C52.8412 36.085 53.2571 35.9858 53.3371 35.6434C53.3803 35.4371 53.3259 35.2227 53.1899 35.0627C53.1324 34.9844 53.0684 34.9108 52.998 34.8436L52.8044 34.6548L50.4624 32.1513C49.645 31.2698 48.9011 30.4332 49.1811 29.2686C49.4322 28.2176 50.6416 26.4707 54.2394 26.4707H58.8673L58.0739 29.0334H55.6039L55.6023 29.0318Z" fill="#161616"/><path d="M75.3747 31.8938C74.5845 31.8938 74.1526 31.937 74.0566 32.3385C74.0342 32.4569 74.0614 32.58 74.1302 32.6792C74.1558 32.7224 74.1846 32.764 74.215 32.804L74.2949 32.9048L75.6307 34.5429C76.1266 35.146 76.4657 35.7939 76.277 36.5457C76.0098 37.6591 74.6325 38.7181 72.7736 38.7181H68.9087L68.5696 36.4673H70.5884C70.7276 36.4673 71.0587 36.5089 71.3611 36.5041C71.5098 36.5041 71.6586 36.4833 71.8026 36.4417C71.9418 36.4049 72.0521 36.301 72.0969 36.1634C72.1161 35.9906 72.0665 35.8178 71.9578 35.6819C71.8698 35.5507 71.761 35.4243 71.6986 35.3395L70.438 33.727C69.9389 33.0999 69.5774 32.5144 69.7614 31.753C69.9005 31.1707 70.8588 29.7166 73.4551 29.7166H77.328L76.8081 31.8906H75.3747V31.8938Z" fill="#161616"/><path d="M85.0499 29.7197L84.5252 31.8953H82.4727L81.6009 35.5123C81.4777 36.0258 81.6425 36.4433 82.5143 36.4769H83.8453L82.4296 38.7197H80.7147C78.5823 38.7197 77.3041 38.1358 77.8096 36.0402L78.8094 31.8953H77.9328L78.4575 29.7197H79.3309L79.7708 27.8961L83.6309 27.0786L82.9943 29.7213H85.0499V29.7197Z" fill="#161616"/><path d="M111.669 33.1191L110.319 38.7165H106.758L107.991 33.6038C108.252 32.3369 108.242 32.0009 106.528 31.9689H105.804L104.181 38.7165H100.62L102.244 31.9689H99.6648L98.0379 38.7165H94.4753L96.6445 29.7197H108.247C111.536 29.7197 112.237 30.7739 111.672 33.1191" fill="#161616"/><path d="M118.412 31.8936C117.623 31.8936 117.191 31.9368 117.095 32.3384C117.073 32.4567 117.098 32.5783 117.167 32.6791C117.194 32.7223 117.223 32.7639 117.254 32.8039L117.334 32.9047L118.669 34.5428C119.165 35.1459 119.496 35.7937 119.316 36.5456C119.047 37.659 117.671 38.718 115.812 38.718H111.947L111.607 36.4672H113.625C113.765 36.4672 114.712 36.4832 114.841 36.44C114.98 36.4048 115.092 36.2993 115.134 36.1617C115.153 35.9889 115.104 35.8161 114.995 35.6802C114.908 35.549 114.798 35.4226 114.736 35.3378L113.477 33.7253C112.978 33.0982 112.616 32.5127 112.8 31.7513C112.939 31.169 113.896 29.7148 116.494 29.7148H120.365L119.845 31.8888H118.412V31.8936Z" fill="#161616"/><path d="M57.5156 41.8951C57.794 41.7416 58.0723 41.4968 58.5362 40.9417L60.7742 37.7807L58.6482 29.7021H62.6203L63.4138 34.2917L66.1093 29.7021H70.1373L62.2364 41.0841C61.9132 41.5512 61.1454 41.9191 60.6927 41.9191L57.5156 41.8967V41.8951Z" fill="#161616"/><path d="M89.8761 36.2208C90.2521 36.344 91.0407 36.5248 92.3653 36.4688H93.6707L92.3189 38.718H89.8393C85.9696 38.718 84.4371 35.5265 84.877 33.4469C85.4033 30.9642 86.9951 29.5068 91.1639 29.5068C95.3328 29.5068 95.32 31.2169 94.9072 32.7223C94.3857 34.6323 92.2917 35.5201 89.8969 36.0608C89.8537 36.0656 89.8202 36.1008 89.8186 36.144C89.8186 36.1824 89.8425 36.216 89.8777 36.2288M90.8712 31.692C88.5996 31.692 88.1885 33.5669 88.4428 34.1732C89.5834 34.0756 91.2839 33.4229 91.5478 32.5447C91.6582 32.1272 91.7046 31.692 90.8712 31.692Z" fill="#161616"/><path d="M128.682 29.7471H127.741L126.57 32.089C126.498 32.2314 126.438 32.3786 126.386 32.529H126.372C126.382 32.3834 126.382 32.2362 126.372 32.089L126.206 29.7471H125.26L123.98 33.8375H124.801L125.503 31.454C125.551 31.2876 125.587 31.1164 125.609 30.9437H125.622C125.622 30.9437 125.622 31.1932 125.646 31.454L125.854 33.8375H126.337L127.53 31.454C127.613 31.2892 127.684 31.118 127.745 30.9437H127.757C127.757 30.9437 127.709 31.198 127.681 31.454L127.388 33.8375H128.276L128.679 29.7471H128.682ZM124.507 29.7471H122.131L122.002 30.395H122.697L121.984 33.8375H122.958L123.665 30.395H124.374L124.508 29.7471H124.507Z" fill="#161616"/><path d="M123.246 55.275H127.317L127.473 54.2816H124.737L125.639 49.0186H124.334L123.246 55.275Z" fill="#161616"/><path d="M131.016 52.8675C130.518 53.2883 129.058 53.2579 128.933 54.0705C128.84 54.5216 129.243 54.6416 129.586 54.6416C129.834 54.6416 130.051 54.5808 130.301 54.5216L129.958 55.3039C129.679 55.3343 129.306 55.3935 129.151 55.3935C128.156 55.3935 127.597 54.9424 127.752 54.0097C128.095 52.2052 130.954 52.7459 131.141 51.8437C131.203 51.3318 130.736 51.2726 130.426 51.2726C129.835 51.2726 129.245 51.423 128.655 51.6629L128.903 50.7911C129.555 50.6103 130.208 50.5208 130.83 50.5208C131.608 50.5208 132.54 50.7015 132.353 51.7845L131.763 55.2735H130.582L131.018 52.8675H131.016Z" fill="#161616"/><path d="M134.652 51.3941L134.682 51.4245C135.118 50.7334 135.74 50.5222 136.453 50.5222C137.386 50.5222 138.101 50.8838 137.914 52.0259L137.354 55.3037H136.111L136.639 52.3267C136.701 51.8452 136.329 51.5748 135.861 51.5748C135.054 51.5748 134.556 52.0563 134.276 53.4993L133.966 55.3037H132.753L133.561 50.6118L134.774 50.6422L134.649 51.3941H134.652Z" fill="#161616"/><path d="M142.327 51.5445C142.14 51.4837 141.955 51.4549 141.737 51.4549C140.587 51.4549 140.027 52.1764 139.872 53.0194C139.747 53.8913 140.027 54.4928 140.712 54.4928C141.396 54.4928 141.955 53.7713 142.079 53.0498L142.327 51.5461V51.5445ZM141.862 54.5232V54.5536C141.396 55.1247 140.899 55.4254 140.184 55.4254C139.034 55.395 138.413 54.4624 138.63 53.109C138.941 51.3637 140.184 50.5223 141.644 50.5223C141.955 50.5223 142.204 50.5831 142.515 50.6119L142.763 49.0474H144.005L142.918 55.3038H141.737L141.862 54.5216V54.5232Z" fill="#161616"/></g><defs><clipPath id="clip0_119_29"><rect width="147.333" height="54.7101" fill="white" transform="translate(0.666626 0.64502)"/></clipPath></defs></svg>