<svg width="112" height="112" viewBox="0 0 112 112" fill="none" xmlns="http://www.w3.org/2000/svg"><rect x="1.71359" y="1.71359" width="108.573" height="108.573" rx="54.2864" fill="#1D334F"/><rect x="1.71359" y="1.71359" width="108.573" height="108.573" rx="54.2864" stroke="white" stroke-width="2.57282"/><path d="M48.4368 72.5098C47.8292 72.5098 47.334 73.0039 47.334 73.6127C47.334 74.2216 47.8292 74.7157 48.4368 74.7157C49.0445 74.7157 49.5396 74.2216 49.5396 73.6127C49.5396 73.0039 49.0445 72.5098 48.4368 72.5098Z" fill="white"/><path d="M48.4363 66.9951C44.7876 66.9951 41.8193 69.9637 41.8193 73.6129C41.8193 77.262 44.7876 80.2307 48.4363 80.2307C52.0849 80.2307 55.0532 77.262 55.0532 73.6129C55.0532 69.9637 52.0849 66.9951 48.4363 66.9951ZM48.4363 76.9218C46.6122 76.9218 45.1278 75.4372 45.1278 73.6129C45.1278 71.7886 46.6122 70.304 48.4363 70.304C50.2603 70.304 51.7447 71.7886 51.7447 73.6129C51.7447 75.4372 50.2603 76.9218 48.4363 76.9218Z" fill="white"/><path d="M32.9964 72.5098C32.3887 72.5098 31.8936 73.0039 31.8936 73.6127C31.8936 74.2216 32.3887 74.7157 32.9964 74.7157C33.604 74.7157 34.0992 74.2216 34.0992 73.6127C34.0992 73.0039 33.604 72.5098 32.9964 72.5098Z" fill="white"/><path d="M32.9968 66.9951C29.3481 66.9951 26.3799 69.9637 26.3799 73.6129C26.3799 77.262 29.3481 80.2307 32.9968 80.2307C36.6455 80.2307 39.6137 77.262 39.6137 73.6129C39.6137 69.9637 36.6455 66.9951 32.9968 66.9951ZM32.9968 76.9218C31.1727 76.9218 29.6883 75.4372 29.6883 73.6129C29.6883 71.7886 31.1727 70.304 32.9968 70.304C34.8209 70.304 36.3053 71.7886 36.3053 73.6129C36.3053 75.4372 34.8209 76.9218 32.9968 76.9218Z" fill="white"/><path d="M60.7298 58.1714C60.1122 58.1714 59.627 58.6567 59.627 59.2743V68.098C59.627 68.7157 60.1122 69.201 60.7298 69.201V70.304C60.7298 72.1349 62.2076 73.6128 64.0382 73.6128H66.2439C68.0746 73.6128 69.5523 72.1349 69.5523 70.304V58.1714H60.7298ZM67.3467 70.304C67.3467 70.9216 66.8614 71.4069 66.2439 71.4069H64.0382C63.4207 71.4069 62.9354 70.9216 62.9354 70.304V69.201H67.3467V70.304Z" fill="white"/><path d="M97.2503 68.8045C96.6404 68.8045 96.1475 68.3115 96.1475 67.7016C96.1475 67.0916 96.6404 66.5986 97.2503 66.5986H102.764V64.0144C102.764 62.5408 102.191 61.1555 101.149 60.1143L100.452 59.4178L99.1565 54.2322C98.5406 51.7721 96.341 50.0542 93.8062 50.0542H81.8108C81.201 50.0542 80.708 50.5472 80.708 51.1572V66.1508C80.708 66.5181 80.8911 66.8606 81.1949 67.0663C81.4987 67.2709 81.8864 67.3078 82.2266 67.1733C83.1634 66.7916 84.1372 66.5992 85.1193 66.5992C88.2728 66.5992 91.0773 68.4941 92.2639 71.4257C92.4337 71.8415 92.8368 72.114 93.2868 72.114H101.662C102.271 72.114 102.764 71.621 102.764 71.011V68.8051H97.2503V68.8045ZM92.839 52.2601H93.8062C95.327 52.2601 96.6471 53.2908 97.0154 54.7666L98.0427 58.8779H92.8385V52.2601H92.839ZM87.3249 57.7749V52.2601H90.6334V58.8779H88.4277C87.8201 58.8779 87.3249 58.3838 87.3249 57.7749ZM92.839 64.3927H90.6334C90.0235 64.3927 89.5306 63.8997 89.5306 63.2897C89.5306 62.6798 90.0235 62.1868 90.6334 62.1868H92.839C93.4489 62.1868 93.9418 62.6798 93.9418 63.2897C93.9418 63.8997 93.4489 64.3927 92.839 64.3927Z" fill="white"/><path d="M88.2503 68.8046C87.6404 68.8046 87.1475 68.3115 87.1475 67.7016C87.1475 67.0916 87.6404 66.5986 88.2503 66.5986H93.7644V64.0144C93.7644 62.5408 93.1915 61.1555 92.1488 60.1143L91.4523 59.4178L90.1565 54.2322C89.5406 51.7721 87.341 50.0542 84.8062 50.0542H72.8108C72.201 50.0542 71.708 50.5472 71.708 51.1572V66.1508C71.708 66.5181 71.8911 66.8606 72.1949 67.0663C72.4987 67.2709 72.8864 67.3078 73.2266 67.1733C74.1634 66.7916 75.1372 66.5992 76.1193 66.5992C79.2728 66.5992 82.0773 68.4941 83.2639 71.4257C83.4337 71.8416 83.8368 72.114 84.2868 72.114H92.6616C93.2714 72.114 93.7644 71.621 93.7644 71.011V68.8051L88.2503 68.8046ZM83.839 52.2601H84.8062C86.327 52.2601 87.6471 53.2908 88.0154 54.7666L89.0427 58.8779H83.8385L83.839 52.2601ZM78.3249 57.7749V52.2601H81.6334V58.8779H79.4277C78.8201 58.8779 78.3249 58.3838 78.3249 57.7749ZM83.839 64.3927H81.6334C81.0235 64.3927 80.5306 63.8997 80.5306 63.2897C80.5306 62.6798 81.0235 62.1868 81.6334 62.1868H83.839C84.4489 62.1868 84.9418 62.6798 84.9418 63.2897C84.9418 63.8997 84.4489 64.3927 83.839 64.3927Z" fill="white"/><circle cx="89.708" cy="72.0542" r="7" fill="#1D334F"/><ellipse cx="77.14" cy="70.7144" rx="6.43204" ry="5.66019" fill="#1D334F"/><path d="M58.3617 62.583V69.2008H56.0678C54.5459 66.5537 51.7006 64.7889 48.4363 64.7889C45.1719 64.7889 42.3267 66.5537 40.8048 69.2008H40.6283C39.1064 66.5537 36.2612 64.7889 32.9968 64.7889C29.7325 64.7889 26.6373 66.5757 25.1154 69.2008C25.0713 69.2228 25.4315 66.8201 25.3874 66.8201C25.1006 66.8201 25.5272 63.594 24.6449 66.3496C24.2038 65.9305 24.9464 65.5924 25.3875 65.1733L28.9164 62.9139C29.0046 62.8036 29.1369 62.7154 29.2693 62.6712C29.4016 62.6051 29.534 62.583 29.6884 62.583H58.3617Z" fill="white"/><path d="M42.8339 62.583L40.643 67.7612V66.8201C39.1211 64.173 36.1729 64.7889 32.9085 64.7889C29.6442 64.7889 26.8724 65.1141 25.3505 67.7612L25.1006 69.2008C23.5787 66.5537 20.7334 64.7889 17.469 64.7889C14.2047 64.7889 11.3815 66.5537 9.85959 69.1787C9.81547 69.2008 9.79342 69.2008 9.7493 69.2008C9.46257 69.2008 9.17584 69.0905 8.97733 68.8699C8.5362 68.4508 8.5362 67.7449 8.97733 67.3257L13.3886 62.9139C13.4768 62.8036 13.6092 62.7154 13.7415 62.6712C13.8738 62.6051 14.0062 62.583 14.1606 62.583H42.8339Z" fill="white"/><path d="M76.884 72.1045C76.3162 72.1045 75.8535 72.5662 75.8535 73.1351C75.8535 73.704 76.3162 74.1658 76.884 74.1658C77.4518 74.1658 77.9145 73.704 77.9145 73.1351C77.9145 72.5662 77.4518 72.1045 76.884 72.1045Z" fill="white"/><path d="M76.8842 66.9521C73.4748 66.9521 70.7012 69.7261 70.7012 73.1359C70.7012 76.5458 73.4748 79.3197 76.8842 79.3197C80.2936 79.3197 83.0672 76.5458 83.0672 73.1359C83.0672 69.7261 80.2936 66.9521 76.8842 66.9521ZM76.8842 76.2278C75.1797 76.2278 73.7927 74.8406 73.7927 73.1359C73.7927 71.4313 75.1797 70.044 76.8842 70.044C78.5886 70.044 79.9757 71.4313 79.9757 73.1359C79.9757 74.8406 78.5886 76.2278 76.8842 76.2278Z" fill="white"/><path d="M89.8909 72.2075C89.323 72.2075 88.8604 72.6692 88.8604 73.2382C88.8604 73.8071 89.323 74.2688 89.8909 74.2688C90.4587 74.2688 90.9214 73.8071 90.9214 73.2382C90.9214 72.6692 90.4587 72.2075 89.8909 72.2075Z" fill="white"/><path d="M89.891 67.0542C86.4816 67.0542 83.708 69.8281 83.708 73.238C83.708 76.6478 86.4816 79.4218 89.891 79.4218C93.3004 79.4218 96.074 76.6478 96.074 73.238C96.074 69.8281 93.3004 67.0542 89.891 67.0542ZM89.891 76.3299C88.1866 76.3299 86.7995 74.9427 86.7995 73.238C86.7995 71.5333 88.1866 70.1461 89.891 70.1461C91.5955 70.1461 92.9825 71.5333 92.9825 73.238C92.9825 74.9427 91.5955 76.3299 89.891 76.3299Z" fill="white"/><rect x="75.708" y="51.0542" width="16" height="14" fill="white"/><rect x="75.708" y="51.0542" width="16" height="14" fill="white"/><rect x="75.708" y="62.0542" width="21" height="3" fill="white"/><path d="M54.8213 49.4855L48.5319 40.4296C48.345 40.1605 48.0382 40 47.7106 40H16C15.4477 40 15 40.4477 15 41V59C15 59.5523 15.4477 60 16 60H54C54.5523 60 55 59.5523 55 59V50.0559C55 49.852 54.9377 49.653 54.8213 49.4855Z" fill="white" stroke="white"/><path d="M17.6165 72.5703C17.0088 72.5703 16.5137 73.0644 16.5137 73.6733C16.5137 74.2821 17.0088 74.7762 17.6165 74.7762C18.2241 74.7762 18.7193 74.2821 18.7193 73.6733C18.7193 73.0644 18.2241 72.5703 17.6165 72.5703Z" fill="white"/><path d="M17.6169 67.0557C13.9682 67.0557 11 70.0243 11 73.6734C11 77.3226 13.9682 80.2912 17.6169 80.2912C21.2656 80.2912 24.2338 77.3226 24.2338 73.6734C24.2338 70.0243 21.2656 67.0557 17.6169 67.0557ZM17.6169 76.9823C15.7929 76.9823 14.3085 75.4977 14.3085 73.6734C14.3085 71.8491 15.7929 70.3645 17.6169 70.3645C19.441 70.3645 20.9254 71.8491 20.9254 73.6734C20.9254 75.4977 19.441 76.9823 17.6169 76.9823Z" fill="white"/><g clip-path="url(#clip0_2097_384)"><path d="M95.777 35.9031L89.2897 35.8548L89.3814 36.6487L55.7623 40.2847C55.7623 40.2847 51.2157 40.5509 50.2906 40.6512L44.5 41.4641C43.2408 41.6004 41.3788 41.5152 41.5241 42.7716C41.5998 43.4264 41.9455 43.9859 42.437 44.353L41.2553 46.1241L38.2643 44.8002L37.315 44.3801L34.7684 43.2526L34.0004 44.4036L41.448 49.3729C41.4863 48.8324 41.6239 48.3041 41.8557 47.8101C41.9505 47.6084 42.061 47.4125 42.1868 47.2239C42.3126 47.0354 42.4407 46.8713 42.5841 46.712C43.2039 46.0222 44.0205 45.5458 44.9428 45.3444C44.9762 45.3367 45.0103 45.3298 45.0441 45.3234C45.385 45.2567 45.7281 45.2295 46.0671 45.2408C46.9007 45.2684 47.7137 45.5275 48.4262 46.0029C49.3536 46.6217 50.008 47.5375 50.2906 48.6026C50.3139 48.6889 50.3341 48.7764 50.3521 48.8652C50.5916 50.042 50.3581 51.2379 49.694 52.2331C49.5682 52.4217 49.4297 52.5988 49.2796 52.7636C48.9178 53.1617 48.4898 53.4877 48.0133 53.7296L52.0028 57.7548L53.6272 55.8815L55.6157 54.4392L64.4215 41.242L89.5979 38.5194L89.6897 39.3133L96.0058 37.8801L95.777 35.9031ZM54.516 53.2345L51.9183 50.3871L53.5544 47.935L51.3754 44.0096L54.0556 43.7198C54.9805 43.6198 55.7127 42.9837 55.979 42.1552L62.3698 41.4641L54.516 53.2345Z" fill="white"/><rect x="44.4551" y="43.0054" width="9.67942" height="6.96573" transform="rotate(33.713 44.4551 43.0054)" fill="white"/><path d="M54.8289 53.4717L50.5 42L63.368 41.1291L54.8289 53.4717Z" fill="white"/><rect x="47.2822" y="38.1294" width="1.47979" height="19.6728" transform="rotate(-26.2903 47.2822 38.1294)" fill="#1D334F"/></g><defs><clipPath id="clip0_2097_384"><rect width="47.9571" height="41.359" fill="white" transform="translate(56.9561 10) rotate(33.713)"/></clipPath></defs></svg>